<?xml version="1.0" encoding="utf-8"?>
<!-- Generator: Adobe Illustrator 24.0.0, SVG Export Plug-In . SVG Version: 6.00 Build 0)  -->
<svg version="1.1" id="レイヤー_1" xmlns="http://www.w3.org/2000/svg" xmlns:xlink="http://www.w3.org/1999/xlink" x="0px"
	 y="0px" width="620px" height="80px" viewBox="0 0 620 80" style="enable-background:new 0 0 620 80;" xml:space="preserve">
<style type="text/css">
	.st0{fill:#CCCCCC;}
	.st1{fill:#FFFFFF;}
</style>
<g>
	<path class="st0" d="M283.99,14.77c0,10.04-5.1,15.18-12.26,15.18c-7.61,0-11.92-6.37-11.92-14.73c0-8.62,4.76-14.95,12.29-14.95
		C280.09,0.26,283.99,7.08,283.99,14.77z M265.63,15.1c0,5.66,2.21,10.31,6.3,10.31c4.12,0,6.26-4.61,6.26-10.42
		c0-5.29-1.99-10.2-6.22-10.2C267.61,4.8,265.63,9.82,265.63,15.1z"/>
	<path class="st0" d="M292.83,11.51c1.35-2.14,3.49-3.3,6.18-3.3c4.57,0,7.95,4.27,7.95,10.68c0,7.68-4.35,11.06-8.58,11.06
		c-2.29,0-4.05-1.05-4.95-2.44h-0.07v10.38h-5.55V15.48c0-2.7-0.07-4.91-0.15-6.82h4.83l0.26,2.85H292.83z M293.35,21.1
		c0,3.04,1.84,4.5,3.71,4.5c2.81,0,4.27-2.77,4.27-6.52c0-3.71-1.42-6.41-4.16-6.41c-2.14,0-3.82,2.02-3.82,4.53V21.1z"/>
	<path class="st0" d="M326.49,28.71c-1.72,0.75-4.16,1.2-6.75,1.2c-6.45,0-10.12-4.05-10.12-10.53c0-6,3.45-11.17,9.56-11.17
		c5.06,0,8.36,3.6,8.36,10.34c0,0.82-0.04,1.61-0.15,2.21h-12.48c0.15,3.56,2.7,4.99,5.7,4.99c2.06,0,3.67-0.37,5.1-0.86
		L326.49,28.71z M322.41,16.9c0.04-2.17-0.82-4.83-3.56-4.83c-2.66,0-3.79,2.77-3.94,4.83H322.41z"/>
	<path class="st0" d="M342.66,13.61c-0.41-0.08-0.86-0.11-1.43-0.11c-2.51,0-4.42,1.69-4.42,5.25v10.8h-5.55V15.18
		c0-2.59-0.07-4.65-0.15-6.52h4.76l0.22,3.64h0.15c0.97-2.7,3.22-4.09,5.17-4.09c0.52,0,0.86,0.04,1.24,0.11V13.61z"/>
	<path class="st0" d="M360.97,24.59c0,1.84,0.07,3.67,0.3,4.95h-4.99l-0.34-2.17h-0.11c-1.2,1.65-3.22,2.59-5.55,2.59
		c-3.86,0-6.26-2.89-6.26-6.26c0-5.36,4.76-7.87,11.4-7.87c0-2.06-0.71-3.64-3.75-3.64c-1.91,0-3.79,0.6-5.13,1.43l-1.05-3.6
		c1.39-0.82,3.97-1.76,7.23-1.76c6.48,0,8.25,4.12,8.25,8.7V24.59z M355.57,19.38c-3,0-6.11,0.71-6.11,3.75
		c0,1.99,1.24,2.85,2.62,2.85c1.31,0,3.49-0.94,3.49-3.6V19.38z"/>
	<path class="st0" d="M366.26,4.83l5.47-1.61v5.43h4.61v4.09h-4.61v9.07c0,2.51,0.79,3.56,2.47,3.56c0.79,0,1.24-0.07,1.8-0.19
		l0.08,4.24c-0.75,0.3-2.1,0.49-3.71,0.49c-6,0-6.11-5.21-6.11-7.53v-9.63h-2.74V8.66h2.74V4.83z"/>
	<path class="st0" d="M382.24,5.92c-1.76,0-2.96-1.27-2.96-2.96c0-1.72,1.24-2.96,2.96-2.96c1.8,0,3,1.24,3,2.96
		C385.23,4.76,383.96,5.92,382.24,5.92z M385.05,29.53h-5.55V8.66h5.55V29.53z"/>
	<path class="st0" d="M408.06,18.93c0,7.95-5.1,11.02-9.74,11.02c-5.62,0-9.67-3.97-9.67-10.76c0-7.01,4.23-10.98,9.9-10.98
		C404.39,8.21,408.06,12.59,408.06,18.93z M398.43,12.29c-3.07,0-4.16,3.6-4.16,6.78c0,3.71,1.42,6.78,4.12,6.78
		c2.62,0,4.05-3.11,4.05-6.82C402.44,15.78,401.27,12.29,398.43,12.29z"/>
	<path class="st0" d="M429.63,29.53h-5.55V17.35c0-2.55-0.82-4.57-3.19-4.57c-1.5,0-3.56,1.16-3.56,4.35v12.41h-5.55V14.95
		c0-2.44-0.07-4.42-0.15-6.26h4.8l0.26,2.81h0.11c0.94-1.54,3-3.26,6.04-3.26c3.82,0,6.78,2.66,6.78,8.51V29.53z"/>
	<path class="st0" d="M464.08,29.53h-5.81l-2.06-7.61h-7.72l-1.99,7.61h-5.62l8.17-28.82h6.97L464.08,29.53z M455.42,17.73
		l-1.73-6.56c-0.45-1.8-0.94-4.12-1.31-5.88h-0.11c-0.37,1.8-0.86,4.16-1.27,5.85l-1.72,6.6H455.42z"/>
	<path class="st0" d="M484.28,23.16c0,2.47,0.11,4.61,0.19,6.37h-4.83l-0.26-2.77h-0.11c-0.86,1.35-2.77,3.19-6,3.19
		c-3.97,0-6.67-2.59-6.67-8.85V8.66h5.55v11.62c0,3.15,0.9,5.13,3.19,5.13c1.8,0,3.41-1.54,3.41-3.9V8.66h5.55V23.16z"/>
	<path class="st0" d="M489.87,4.83l5.47-1.61v5.43h4.61v4.09h-4.61v9.07c0,2.51,0.79,3.56,2.47,3.56c0.79,0,1.24-0.07,1.8-0.19
		l0.08,4.24c-0.75,0.3-2.1,0.49-3.71,0.49c-6,0-6.11-5.21-6.11-7.53v-9.63h-2.74V8.66h2.74V4.83z"/>
	<path class="st0" d="M521.05,18.93c0,7.95-5.1,11.02-9.74,11.02c-5.62,0-9.67-3.97-9.67-10.76c0-7.01,4.23-10.98,9.9-10.98
		C517.38,8.21,521.05,12.59,521.05,18.93z M511.42,12.29c-3.07,0-4.16,3.6-4.16,6.78c0,3.71,1.42,6.78,4.12,6.78
		c2.62,0,4.05-3.11,4.05-6.82C515.43,15.78,514.27,12.29,511.42,12.29z"/>
	<path class="st0" d="M542.62,29.53h-5.55V17.35c0-2.55-0.82-4.57-3.19-4.57c-1.5,0-3.56,1.16-3.56,4.35v12.41h-5.55V14.95
		c0-2.44-0.07-4.42-0.15-6.26h4.8l0.26,2.81h0.11c0.94-1.54,3-3.26,6.03-3.26c3.82,0,6.78,2.66,6.78,8.51V29.53z"/>
	<path class="st0" d="M565.56,18.93c0,7.95-5.1,11.02-9.74,11.02c-5.62,0-9.67-3.97-9.67-10.76c0-7.01,4.23-10.98,9.9-10.98
		C561.89,8.21,565.56,12.59,565.56,18.93z M555.93,12.29c-3.07,0-4.16,3.6-4.16,6.78c0,3.71,1.42,6.78,4.12,6.78
		c2.62,0,4.05-3.11,4.05-6.82C559.94,15.78,558.78,12.29,555.93,12.29z"/>
	<path class="st0" d="M598.18,29.53h-5.43V17.73c0-3-0.83-4.99-3.04-4.99c-1.54,0-3.26,1.2-3.26,4.12v12.67h-5.43V17.2
		c0-2.47-0.79-4.46-2.96-4.46c-1.54,0-3.34,1.42-3.34,4.23v12.56h-5.43V14.95c0-2.44-0.07-4.42-0.15-6.26h4.72l0.26,2.77h0.11
		c0.97-1.5,2.81-3.22,5.92-3.22c2.55,0,4.5,1.35,5.32,3.49h0.07c1.72-2.55,3.86-3.49,6.18-3.49c3.63,0,6.45,2.59,6.45,8.62V29.53z"
		/>
	<path class="st0" d="M619.43,8.66l-4.72,14.5c-2.32,6.75-4.09,10.42-6.45,12.78c-2.02,1.95-4.16,2.7-5.4,2.92l-1.39-4.68
		c0.9-0.26,1.95-0.86,2.92-1.54c1.84-1.31,2.77-3.45,2.77-3.86c0-0.23-0.07-0.53-0.23-0.94l-7.01-19.19h6.07l3.07,10.91
		c0.34,1.27,0.71,2.74,0.97,3.9h0.11c0.22-1.12,0.56-2.59,0.86-3.9l2.62-10.91H619.43z"/>
	<path class="st0" d="M275.29,47.8c-1.01-0.53-2.77-1.24-5.13-1.24c-2.92,0-4.23,1.57-4.23,3.19c0,2.06,1.42,3,4.95,4.61
		c4.61,2.06,6.67,4.72,6.67,8.51c0,5.02-3.79,8.7-10.5,8.7c-2.85,0-5.73-0.79-7.08-1.61l1.09-4.65c1.5,0.9,3.9,1.61,6.22,1.61
		c3.07,0,4.68-1.46,4.68-3.6c0-2.06-1.39-3.3-4.57-4.69c-4.35-1.87-7.05-4.57-7.05-8.32c0-4.72,3.71-8.36,9.93-8.36
		c2.74,0,4.83,0.64,6.18,1.31L275.29,47.8z"/>
	<path class="st0" d="M298.46,64.82c0,2.47,0.11,4.61,0.19,6.37h-4.83l-0.26-2.77h-0.11c-0.86,1.35-2.77,3.19-6,3.19
		c-3.97,0-6.67-2.59-6.67-8.85V50.31h5.55v11.62c0,3.15,0.9,5.13,3.19,5.13c1.8,0,3.41-1.54,3.41-3.9V50.31h5.55V64.82z"/>
	<path class="st0" d="M308.29,53.16c1.35-2.14,3.49-3.3,6.18-3.3c4.57,0,7.95,4.27,7.95,10.68c0,7.68-4.35,11.06-8.58,11.06
		c-2.29,0-4.05-1.05-4.95-2.44h-0.07v10.38h-5.55V57.14c0-2.7-0.07-4.91-0.15-6.82h4.83l0.26,2.85H308.29z M308.82,62.76
		c0,3.04,1.84,4.5,3.71,4.5c2.81,0,4.27-2.77,4.27-6.52c0-3.71-1.42-6.41-4.16-6.41c-2.14,0-3.82,2.02-3.82,4.53V62.76z"/>
	<path class="st0" d="M331.2,53.16c1.35-2.14,3.49-3.3,6.18-3.3c4.57,0,7.95,4.27,7.95,10.68c0,7.68-4.35,11.06-8.58,11.06
		c-2.29,0-4.05-1.05-4.95-2.44h-0.07v10.38h-5.55V57.14c0-2.7-0.07-4.91-0.15-6.82h4.83l0.26,2.85H331.2z M331.73,62.76
		c0,3.04,1.84,4.5,3.71,4.5c2.81,0,4.27-2.77,4.27-6.52c0-3.71-1.42-6.41-4.16-6.41c-2.14,0-3.82,2.02-3.82,4.53V62.76z"/>
	<path class="st0" d="M367.38,60.58c0,7.95-5.1,11.02-9.74,11.02c-5.62,0-9.67-3.97-9.67-10.76c0-7.01,4.23-10.98,9.9-10.98
		C363.71,49.87,367.38,54.25,367.38,60.58z M357.75,53.95c-3.07,0-4.16,3.6-4.16,6.78c0,3.71,1.42,6.78,4.12,6.78
		c2.62,0,4.05-3.11,4.05-6.82C361.76,57.44,360.6,53.95,357.75,53.95z"/>
	<path class="st0" d="M382.51,55.26c-0.41-0.08-0.86-0.11-1.43-0.11c-2.51,0-4.42,1.69-4.42,5.25v10.79h-5.55V56.84
		c0-2.59-0.07-4.65-0.15-6.52h4.76l0.22,3.64h0.15c0.97-2.7,3.22-4.09,5.17-4.09c0.53,0,0.86,0.04,1.24,0.11V55.26z"/>
	<path class="st0" d="M387.12,46.49l5.47-1.61v5.43h4.61v4.09h-4.61v9.07c0,2.51,0.79,3.56,2.47,3.56c0.79,0,1.24-0.07,1.8-0.19
		l0.08,4.24c-0.75,0.3-2.1,0.49-3.71,0.49c-6,0-6.11-5.21-6.11-7.53V54.4h-2.74v-4.09h2.74V46.49z"/>
	<path class="st0" d="M425.16,71.19h-16.12V42.37h15.52v4.65h-9.97v6.97H424v4.53h-9.41v8.02h10.57V71.19z"/>
	<path class="st0" d="M446.67,71.19h-5.55V59.01c0-2.55-0.82-4.57-3.19-4.57c-1.5,0-3.56,1.16-3.56,4.35v12.41h-5.55V56.61
		c0-2.44-0.07-4.42-0.15-6.26h4.8l0.26,2.81h0.11c0.94-1.54,3-3.26,6.04-3.26c3.82,0,6.78,2.66,6.78,8.51V71.19z"/>
	<path class="st0" d="M469.3,50.35c-0.11,1.5-0.19,3.34-0.19,6.22v11.77c0,4.09-0.37,11.66-10.53,11.66c-2.44,0-4.95-0.49-6.6-1.42
		l1.09-4.24c1.24,0.67,3.19,1.35,5.4,1.35c3.11,0,5.17-1.76,5.17-5.77v-1.54h-0.07c-1.05,1.65-2.92,2.66-5.21,2.66
		c-4.95,0-8.06-4.46-8.06-10.16c0-6.9,4.01-10.98,8.62-10.98c2.62,0,4.31,1.27,5.25,2.92h0.07l0.22-2.47H469.3z M463.57,58.45
		c0-2.66-1.61-4.2-3.49-4.2c-2.51,0-4.2,2.55-4.2,6.48c0,3.64,1.54,6.11,4.16,6.11c1.27,0,3.52-0.82,3.52-4.35V58.45z"/>
	<path class="st0" d="M476.63,47.58c-1.76,0-2.96-1.27-2.96-2.96c0-1.72,1.24-2.96,2.96-2.96c1.8,0,3,1.24,3,2.96
		C479.63,46.42,478.36,47.58,476.63,47.58z M479.44,71.19h-5.55V50.31h5.55V71.19z"/>
	<path class="st0" d="M502.01,71.19h-5.55V59.01c0-2.55-0.82-4.57-3.19-4.57c-1.5,0-3.56,1.16-3.56,4.35v12.41h-5.55V56.61
		c0-2.44-0.07-4.42-0.15-6.26h4.8l0.26,2.81h0.11c0.94-1.54,3-3.26,6.04-3.26c3.82,0,6.78,2.66,6.78,8.51V71.19z"/>
	<path class="st0" d="M522.44,70.37c-1.72,0.75-4.16,1.2-6.75,1.2c-6.45,0-10.12-4.05-10.12-10.53c0-6,3.45-11.17,9.56-11.17
		c5.06,0,8.36,3.6,8.36,10.34c0,0.82-0.04,1.61-0.15,2.21h-12.48c0.15,3.56,2.7,4.99,5.7,4.99c2.06,0,3.67-0.37,5.1-0.86
		L522.44,70.37z M518.35,58.56c0.04-2.17-0.82-4.83-3.56-4.83c-2.66,0-3.79,2.77-3.94,4.83H518.35z"/>
</g>
<g>
	<path class="st1" d="M60.31,37.97c0,6.72-1.25,12.67-3.74,17.85c-2.49,5.18-6.04,9.16-10.63,11.95c-4.59,2.79-9.82,4.19-15.69,4.19
		s-11.08-1.35-15.62-4.05C10.08,65.22,6.54,61.36,4,56.34c-2.54-5.02-3.87-10.78-4-17.28v-3.88c0-6.75,1.24-12.71,3.72-17.87
		c2.48-5.16,6.03-9.14,10.65-11.95c4.62-2.81,9.89-4.21,15.79-4.21c5.84,0,11.04,1.39,15.62,4.17c4.58,2.78,8.14,6.73,10.68,11.86
		c2.54,5.13,3.83,11.01,3.86,17.63V37.97z M43.41,35.09c0-6.85-1.14-12.05-3.43-15.6c-2.29-3.55-5.56-5.33-9.82-5.33
		c-8.33,0-12.74,6.25-13.21,18.75l-0.05,5.06c0,6.75,1.12,11.95,3.36,15.57c2.24,3.63,5.57,5.44,9.99,5.44c4.2,0,7.43-1.78,9.7-5.35
		c2.27-3.57,3.42-8.7,3.46-15.39V35.09z"/>
	<path class="st1" d="M103.93,58.14H81.16l-3.98,12.88H59.43L84.71,2.09h15.62l25.47,68.93h-17.85L103.93,58.14z M85.14,45.31h14.82
		L92.52,21.4L85.14,45.31z"/>
	<path class="st1" d="M163.81,52.7c0-2.43-0.86-4.32-2.58-5.68c-1.72-1.36-4.74-2.76-9.07-4.21c-4.32-1.45-7.86-2.86-10.61-4.21
		c-8.93-4.39-13.4-10.41-13.4-18.08c0-3.82,1.11-7.19,3.34-10.11c2.23-2.92,5.37-5.19,9.44-6.82c4.07-1.62,8.65-2.44,13.73-2.44
		c4.96,0,9.4,0.88,13.33,2.65c3.93,1.77,6.98,4.28,9.16,7.55c2.18,3.27,3.27,7,3.27,11.2h-16.57c0-2.81-0.86-4.99-2.58-6.53
		c-1.72-1.55-4.05-2.32-6.98-2.32c-2.97,0-5.31,0.66-7.03,1.96c-1.72,1.31-2.58,2.97-2.58,4.99c0,1.77,0.95,3.37,2.84,4.81
		c1.89,1.44,5.22,2.92,9.99,4.45c4.77,1.53,8.68,3.18,11.74,4.95c7.45,4.29,11.17,10.21,11.17,17.75c0,6.03-2.27,10.76-6.82,14.2
		c-4.54,3.44-10.78,5.16-18.7,5.16c-5.59,0-10.64-1-15.17-3.01c-4.53-2-7.94-4.75-10.23-8.24c-2.29-3.49-3.43-7.5-3.43-12.05h16.66
		c0,3.69,0.96,6.41,2.86,8.17c1.91,1.75,5.01,2.63,9.3,2.63c2.75,0,4.92-0.59,6.51-1.78C163.02,56.51,163.81,54.84,163.81,52.7z"/>
	<path class="st1" d="M231.2,41.76h-26.13v16.47h30.87v12.78h-47.48V2.09h47.58v12.83h-30.96v14.53h26.13V41.76z"/>
</g>
</svg>
